<svg xmlns="http://www.w3.org/2000/svg" version="1.1" xmlns:xlink="http://www.w3.org/1999/xlink" xmlns:svgjs="http://svgjs.com/svgjs" width="1920" height="1080" preserveAspectRatio="none" viewBox="0 0 1920 1080"><g mask="url(&quot;#SvgjsMask2613&quot;)" fill="none"><rect width="1920" height="1080" x="0" y="0" fill="url(#SvgjsLinearGradient2614)"></rect><path d="M601.381,945.768C670.519,945.701,723.505,889.923,755.375,828.568C784.557,772.388,785.82,706.274,754.302,651.371C722.646,596.227,664.874,563.717,601.381,560.318C530.702,556.535,452.507,571.977,417.208,633.327C381.97,694.572,410.986,767.997,446.867,828.868C482.018,888.5,532.16,945.835,601.381,945.768" fill="rgba(126, 0, 0, 0.48)" class="triangle-float2"></path><path d="M1840.079,461.279C1940.789,462.922,2034.698,406.805,2083.194,318.525C2130.033,233.261,2114.004,132.296,2067.848,46.661C2018.723,-44.483,1943.525,-128.129,1840.079,-132.539C1730.191,-137.223,1626.601,-71.961,1575.995,25.694C1528.789,116.787,1557.14,223.076,1610.331,310.809C1661.199,394.712,1741.973,459.678,1840.079,461.279" fill="rgba(126, 0, 0, 0.48)" class="triangle-float1"></path><path d="M1693.418,152.668C1751.852,156.375,1818.555,152.618,1849.585,102.966C1881.816,51.392,1861.93,-14.286,1830.171,-66.152C1800.04,-115.36,1751.022,-155.394,1693.418,-152.071C1639.827,-148.98,1606.576,-99.276,1581.511,-51.807C1558.562,-8.346,1544.58,41.998,1568.176,85.111C1592.583,129.708,1642.681,149.449,1693.418,152.668" fill="rgba(126, 0, 0, 0.48)" class="triangle-float1"></path><path d="M778.23,1182.087C837.719,1179.831,878.453,1128.63,907.091,1076.439C934.36,1026.743,949.257,968.706,922.829,918.557C894.752,865.277,838.424,833.839,778.23,831.913C714.344,829.869,648.583,853.382,616.662,908.76C584.773,964.083,598.757,1031.93,631.251,1086.9C663.086,1140.756,715.714,1184.458,778.23,1182.087" fill="rgba(126, 0, 0, 0.48)" class="triangle-float2"></path><path d="M1540.603,1545.509C1654.278,1545.84,1741.244,1456.931,1797.968,1358.42C1854.552,1260.152,1889.347,1139.375,1830.148,1042.661C1772.721,948.841,1650.514,933.54,1540.603,937.957C1439.998,942,1341.062,978.393,1288.747,1064.421C1234.447,1153.715,1237.352,1264.34,1285.823,1356.928C1338.347,1457.257,1427.357,1545.179,1540.603,1545.509" fill="rgba(126, 0, 0, 0.48)" class="triangle-float3"></path><path d="M1201.936,712.532C1285.691,711.914,1354.175,652.637,1394.965,579.483C1434.576,508.444,1442.561,423.02,1402.987,351.961C1362.369,279.027,1285.229,227.261,1201.936,232.878C1125.624,238.024,1080.648,309.697,1042.942,376.242C1005.992,441.452,971.871,514.611,1003.907,582.37C1040.095,658.911,1117.274,713.157,1201.936,712.532" fill="rgba(126, 0, 0, 0.48)" class="triangle-float3"></path><path d="M15.333,276.224C58.442,277.318,90.532,241.622,112.366,204.435C134.559,166.638,149.019,121.788,128.866,82.865C107.307,41.228,62.219,16.808,15.333,17.031C-31.176,17.253,-75.998,42.112,-96.342,83.937C-114.783,121.849,-94.699,163.259,-73.526,199.716C-52.487,235.942,-26.546,275.161,15.333,276.224" fill="rgba(126, 0, 0, 0.48)" class="triangle-float1"></path><path d="M188.767,1080.796C280.991,1072.601,357.909,1022.477,410.116,946.013C472.128,855.188,538.343,743.365,484.701,647.359C430.404,550.181,300.067,547.849,188.767,549.852C82.24,551.769,-29.245,569.667,-89.274,657.69C-156.84,756.765,-178.967,892.286,-113.109,992.505C-51.399,1086.412,76.84,1090.742,188.767,1080.796" fill="rgba(126, 0, 0, 0.48)" class="triangle-float3"></path><path d="M805.519,433.645C883.437,431.071,958.367,399.564,999.224,333.166C1042.1,263.487,1045.14,177.315,1008.15,104.341C967.106,23.368,896.288,-50.483,805.519,-48.98C716.459,-47.505,657.047,32.782,614.186,110.864C573.391,185.182,545.068,273.815,588.297,346.743C630.918,418.646,721.979,436.405,805.519,433.645" fill="rgba(126, 0, 0, 0.48)" class="triangle-float1"></path><path d="M1074.385,900.775C1114.135,897.742,1136.356,858.795,1154.874,823.491C1171.639,791.53,1182.886,755.908,1167.495,723.263C1149.702,685.522,1116.105,652.098,1074.385,652.765C1033.425,653.42,1006.523,690.539,986.292,726.16C966.398,761.189,951.24,801.676,969.385,837.642C989.101,876.722,1030.74,904.105,1074.385,900.775" fill="rgba(126, 0, 0, 0.48)" class="triangle-float1"></path><path d="M1267.801,269.284C1302.364,271.097,1336.788,257.866,1355.917,229.022C1377.217,196.905,1385.004,154.981,1365.743,121.602C1346.476,88.212,1306.35,76.037,1267.801,76.32C1229.828,76.599,1189.551,89.183,1172.321,123.023C1156.113,154.855,1174.839,190.634,1194.366,220.546C1211.579,246.913,1236.356,267.634,1267.801,269.284" fill="rgba(126, 0, 0, 0.48)" class="triangle-float3"></path><path d="M1660.69,665.403C1773.437,664.659,1862.791,578.362,1914.886,478.37C1962.825,386.356,1961.947,277.48,1909.408,188.013C1857.549,99.704,1763.019,41.451,1660.69,45.511C1564.315,49.335,1493.346,123.633,1443.957,206.479C1392.975,291.997,1358.1,391.738,1400.616,481.764C1449.189,584.615,1546.948,666.154,1660.69,665.403" fill="rgba(126, 0, 0, 0.48)" class="triangle-float2"></path></g><defs><mask id="SvgjsMask2613"><rect width="1920" height="1080" fill="#ffffff"></rect></mask><linearGradient x1="10.94%" y1="-19.44%" x2="89.06%" y2="119.44%" gradientUnits="userSpaceOnUse" id="SvgjsLinearGradient2614"><stop stop-color="rgba(69, 0, 77, 1)" offset="0"></stop><stop stop-color="rgba(101, 0, 30, 1)" offset="0.59"></stop><stop stop-color="rgba(107, 0, 0, 1)" offset="1"></stop></linearGradient><style>
            @keyframes float1 {
                0%{transform: translate(0, 0)}
                50%{transform: translate(-10px, 0)}
                100%{transform: translate(0, 0)}
            }

            .triangle-float1 {
                animation: float1 5s infinite;
            }

            @keyframes float2 {
                0%{transform: translate(0, 0)}
                50%{transform: translate(-5px, -5px)}
                100%{transform: translate(0, 0)}
            }

            .triangle-float2 {
                animation: float2 4s infinite;
            }

            @keyframes float3 {
                0%{transform: translate(0, 0)}
                50%{transform: translate(0, -10px)}
                100%{transform: translate(0, 0)}
            }

            .triangle-float3 {
                animation: float3 6s infinite;
            }
        </style></defs></svg>